<?xml version="1.0" encoding="utf-8"?>
<svg version="1.1" id="Layer_1" xmlns="http://www.w3.org/2000/svg" xmlns:xlink="http://www.w3.org/1999/xlink" x="0px" y="0px"
     viewBox="0 0 534.3 118" style="enable-background:new 0 0 534.3 118;" xml:space="preserve">
<desc>Same set of examples, but with the classification threshold increased slightly. 2 of the 30 examples have been reclassified.</desc>
<style type="text/css">
	.raise-st0{font-family:'ArialMT';}
	.raise-st1{font-size:11px;}
	.raise-st2{opacity:0;fill-rule:evenodd;clip-rule:evenodd;}
	.raise-st3{fill:none;stroke:#424242;stroke-width:2.25;stroke-linejoin:round;stroke-miterlimit:14.3356;}
	.raise-st4{fill-rule:evenodd;clip-rule:evenodd;fill:#FF0000;}
	.raise-st5{fill:none;stroke:#000000;stroke-width:1.5;stroke-linejoin:round;stroke-miterlimit:14.3356;}
	.raise-st6{fill-rule:evenodd;clip-rule:evenodd;fill:#00FF00;}
	.raise-st7{fill:none;stroke:#424242;stroke-width:0.75;stroke-linejoin:round;stroke-miterlimit:14.3356;stroke-dasharray:3,2.25;}
	.raise-st8{font-size:10px;}
	.raise-st9{fill:none;}
	.raise-st10{font-size:8px;}
</style>
<text transform="matrix(1 0 0 1 114.3517 110.6099)" class="raise-st0 raise-st1">Output of Logistic Regression model</text>
<line class="raise-st2" x1="19.1" y1="90.5" x2="386.9" y2="90.5"/>
<line class="raise-st3" x1="19.1" y1="90.5" x2="386.9" y2="90.5"/>
<path class="raise-st4" d="M26.8,66L26.8,66c0-1.5,1.3-2.6,2.9-2.6s2.9,1.2,2.9,2.6c0,1.5-1.3,2.6-2.9,2.6S26.8,67.4,26.8,66z"/>
<path class="raise-st5" d="M26.8,66L26.8,66c0-1.5,1.3-2.6,2.9-2.6s2.9,1.2,2.9,2.6c0,1.5-1.3,2.6-2.9,2.6S26.8,67.4,26.8,66z"/>
<path class="raise-st4" d="M38.8,66L38.8,66c0-1.5,1.3-2.6,2.9-2.6c1.6,0,2.9,1.2,2.9,2.6c0,1.5-1.3,2.6-2.9,2.6
	C40.1,68.6,38.8,67.4,38.8,66z"/>
<path class="raise-st5" d="M38.8,66L38.8,66c0-1.5,1.3-2.6,2.9-2.6c1.6,0,2.9,1.2,2.9,2.6c0,1.5-1.3,2.6-2.9,2.6
	C40.1,68.6,38.8,67.4,38.8,66z"/>
<path class="raise-st4" d="M50.8,66L50.8,66c0-1.5,1.3-2.6,2.9-2.6c1.6,0,2.9,1.2,2.9,2.6c0,1.5-1.3,2.6-2.9,2.6
	C52.1,68.6,50.8,67.4,50.8,66z"/>
<path class="raise-st5" d="M50.8,66L50.8,66c0-1.5,1.3-2.6,2.9-2.6c1.6,0,2.9,1.2,2.9,2.6c0,1.5-1.3,2.6-2.9,2.6
	C52.1,68.6,50.8,67.4,50.8,66z"/>
<path class="raise-st4" d="M62.8,66L62.8,66c0-1.5,1.3-2.6,2.9-2.6s2.9,1.2,2.9,2.6c0,1.5-1.3,2.6-2.9,2.6S62.8,67.4,62.8,66z"/>
<path class="raise-st5" d="M62.8,66L62.8,66c0-1.5,1.3-2.6,2.9-2.6s2.9,1.2,2.9,2.6c0,1.5-1.3,2.6-2.9,2.6S62.8,67.4,62.8,66z"/>
<path class="raise-st4" d="M74.8,66L74.8,66c0-1.5,1.3-2.6,2.9-2.6s2.9,1.2,2.9,2.6c0,1.5-1.3,2.6-2.9,2.6S74.8,67.4,74.8,66z"/>
<path class="raise-st5" d="M74.8,66L74.8,66c0-1.5,1.3-2.6,2.9-2.6s2.9,1.2,2.9,2.6c0,1.5-1.3,2.6-2.9,2.6S74.8,67.4,74.8,66z"/>
<path class="raise-st4" d="M86.8,66L86.8,66c0-1.5,1.3-2.6,2.9-2.6s2.9,1.2,2.9,2.6c0,1.5-1.3,2.6-2.9,2.6S86.8,67.4,86.8,66z"/>
<path class="raise-st5" d="M86.8,66L86.8,66c0-1.5,1.3-2.6,2.9-2.6s2.9,1.2,2.9,2.6c0,1.5-1.3,2.6-2.9,2.6S86.8,67.4,86.8,66z"/>
<path class="raise-st4" d="M98.8,66L98.8,66c0-1.5,1.3-2.6,2.9-2.6s2.9,1.2,2.9,2.6c0,1.5-1.3,2.6-2.9,2.6S98.8,67.4,98.8,66z"/>
<path class="raise-st5" d="M98.8,66L98.8,66c0-1.5,1.3-2.6,2.9-2.6s2.9,1.2,2.9,2.6c0,1.5-1.3,2.6-2.9,2.6S98.8,67.4,98.8,66z"/>
<path class="raise-st4" d="M110.8,66L110.8,66c0-1.5,1.3-2.6,2.9-2.6s2.9,1.2,2.9,2.6c0,1.5-1.3,2.6-2.9,2.6S110.8,67.4,110.8,66z"/>
<path class="raise-st5" d="M110.8,66L110.8,66c0-1.5,1.3-2.6,2.9-2.6s2.9,1.2,2.9,2.6c0,1.5-1.3,2.6-2.9,2.6S110.8,67.4,110.8,66z"/>
<path class="raise-st4" d="M38.8,66L38.8,66c0-1.5,1.3-2.6,2.9-2.6c1.6,0,2.9,1.2,2.9,2.6c0,1.5-1.3,2.6-2.9,2.6
	C40.1,68.6,38.8,67.4,38.8,66z"/>
<path class="raise-st5" d="M38.8,66L38.8,66c0-1.5,1.3-2.6,2.9-2.6c1.6,0,2.9,1.2,2.9,2.6c0,1.5-1.3,2.6-2.9,2.6
	C40.1,68.6,38.8,67.4,38.8,66z"/>
<path class="raise-st4" d="M50.8,66L50.8,66c0-1.5,1.3-2.6,2.9-2.6c1.6,0,2.9,1.2,2.9,2.6c0,1.5-1.3,2.6-2.9,2.6
	C52.1,68.6,50.8,67.4,50.8,66z"/>
<path class="raise-st5" d="M50.8,66L50.8,66c0-1.5,1.3-2.6,2.9-2.6c1.6,0,2.9,1.2,2.9,2.6c0,1.5-1.3,2.6-2.9,2.6
	C52.1,68.6,50.8,67.4,50.8,66z"/>
<path class="raise-st4" d="M62.8,66L62.8,66c0-1.5,1.3-2.6,2.9-2.6s2.9,1.2,2.9,2.6c0,1.5-1.3,2.6-2.9,2.6S62.8,67.4,62.8,66z"/>
<path class="raise-st5" d="M62.8,66L62.8,66c0-1.5,1.3-2.6,2.9-2.6s2.9,1.2,2.9,2.6c0,1.5-1.3,2.6-2.9,2.6S62.8,67.4,62.8,66z"/>
<path class="raise-st4" d="M74.8,66L74.8,66c0-1.5,1.3-2.6,2.9-2.6s2.9,1.2,2.9,2.6c0,1.5-1.3,2.6-2.9,2.6S74.8,67.4,74.8,66z"/>
<path class="raise-st5" d="M74.8,66L74.8,66c0-1.5,1.3-2.6,2.9-2.6s2.9,1.2,2.9,2.6c0,1.5-1.3,2.6-2.9,2.6S74.8,67.4,74.8,66z"/>
<path class="raise-st4" d="M86.8,66L86.8,66c0-1.5,1.3-2.6,2.9-2.6s2.9,1.2,2.9,2.6c0,1.5-1.3,2.6-2.9,2.6S86.8,67.4,86.8,66z"/>
<path class="raise-st5" d="M86.8,66L86.8,66c0-1.5,1.3-2.6,2.9-2.6s2.9,1.2,2.9,2.6c0,1.5-1.3,2.6-2.9,2.6S86.8,67.4,86.8,66z"/>
<path class="raise-st4" d="M98.8,66L98.8,66c0-1.5,1.3-2.6,2.9-2.6s2.9,1.2,2.9,2.6c0,1.5-1.3,2.6-2.9,2.6S98.8,67.4,98.8,66z"/>
<path class="raise-st5" d="M98.8,66L98.8,66c0-1.5,1.3-2.6,2.9-2.6s2.9,1.2,2.9,2.6c0,1.5-1.3,2.6-2.9,2.6S98.8,67.4,98.8,66z"/>
<path class="raise-st4" d="M110.8,66L110.8,66c0-1.5,1.3-2.6,2.9-2.6s2.9,1.2,2.9,2.6c0,1.5-1.3,2.6-2.9,2.6S110.8,67.4,110.8,66z"/>
<path class="raise-st5" d="M110.8,66L110.8,66c0-1.5,1.3-2.6,2.9-2.6s2.9,1.2,2.9,2.6c0,1.5-1.3,2.6-2.9,2.6S110.8,67.4,110.8,66z"/>
<path class="raise-st4" d="M122.8,66L122.8,66c0-1.5,1.3-2.6,2.9-2.6s2.9,1.2,2.9,2.6c0,1.5-1.3,2.6-2.9,2.6S122.8,67.4,122.8,66z"/>
<path class="raise-st5" d="M122.8,66L122.8,66c0-1.5,1.3-2.6,2.9-2.6s2.9,1.2,2.9,2.6c0,1.5-1.3,2.6-2.9,2.6S122.8,67.4,122.8,66z"/>
<path class="raise-st4" d="M38.8,66L38.8,66c0-1.5,1.3-2.6,2.9-2.6c1.6,0,2.9,1.2,2.9,2.6c0,1.5-1.3,2.6-2.9,2.6
	C40.1,68.6,38.8,67.4,38.8,66z"/>
<path class="raise-st5" d="M38.8,66L38.8,66c0-1.5,1.3-2.6,2.9-2.6c1.6,0,2.9,1.2,2.9,2.6c0,1.5-1.3,2.6-2.9,2.6
	C40.1,68.6,38.8,67.4,38.8,66z"/>
<path class="raise-st4" d="M50.8,66L50.8,66c0-1.5,1.3-2.6,2.9-2.6c1.6,0,2.9,1.2,2.9,2.6c0,1.5-1.3,2.6-2.9,2.6
	C52.1,68.6,50.8,67.4,50.8,66z"/>
<path class="raise-st5" d="M50.8,66L50.8,66c0-1.5,1.3-2.6,2.9-2.6c1.6,0,2.9,1.2,2.9,2.6c0,1.5-1.3,2.6-2.9,2.6
	C52.1,68.6,50.8,67.4,50.8,66z"/>
<path class="raise-st4" d="M62.8,66L62.8,66c0-1.5,1.3-2.6,2.9-2.6s2.9,1.2,2.9,2.6c0,1.5-1.3,2.6-2.9,2.6S62.8,67.4,62.8,66z"/>
<path class="raise-st5" d="M62.8,66L62.8,66c0-1.5,1.3-2.6,2.9-2.6s2.9,1.2,2.9,2.6c0,1.5-1.3,2.6-2.9,2.6S62.8,67.4,62.8,66z"/>
<path class="raise-st4" d="M74.8,66L74.8,66c0-1.5,1.3-2.6,2.9-2.6s2.9,1.2,2.9,2.6c0,1.5-1.3,2.6-2.9,2.6S74.8,67.4,74.8,66z"/>
<path class="raise-st5" d="M74.8,66L74.8,66c0-1.5,1.3-2.6,2.9-2.6s2.9,1.2,2.9,2.6c0,1.5-1.3,2.6-2.9,2.6S74.8,67.4,74.8,66z"/>
<path class="raise-st4" d="M86.8,66L86.8,66c0-1.5,1.3-2.6,2.9-2.6s2.9,1.2,2.9,2.6c0,1.5-1.3,2.6-2.9,2.6S86.8,67.4,86.8,66z"/>
<path class="raise-st5" d="M86.8,66L86.8,66c0-1.5,1.3-2.6,2.9-2.6s2.9,1.2,2.9,2.6c0,1.5-1.3,2.6-2.9,2.6S86.8,67.4,86.8,66z"/>
<path class="raise-st4" d="M98.8,66L98.8,66c0-1.5,1.3-2.6,2.9-2.6s2.9,1.2,2.9,2.6c0,1.5-1.3,2.6-2.9,2.6S98.8,67.4,98.8,66z"/>
<path class="raise-st5" d="M98.8,66L98.8,66c0-1.5,1.3-2.6,2.9-2.6s2.9,1.2,2.9,2.6c0,1.5-1.3,2.6-2.9,2.6S98.8,67.4,98.8,66z"/>
<path class="raise-st4" d="M110.8,66L110.8,66c0-1.5,1.3-2.6,2.9-2.6s2.9,1.2,2.9,2.6c0,1.5-1.3,2.6-2.9,2.6S110.8,67.4,110.8,66z"/>
<path class="raise-st5" d="M110.8,66L110.8,66c0-1.5,1.3-2.6,2.9-2.6s2.9,1.2,2.9,2.6c0,1.5-1.3,2.6-2.9,2.6S110.8,67.4,110.8,66z"/>
<path class="raise-st4" d="M122.8,66L122.8,66c0-1.5,1.3-2.6,2.9-2.6s2.9,1.2,2.9,2.6c0,1.5-1.3,2.6-2.9,2.6S122.8,67.4,122.8,66z"/>
<path class="raise-st5" d="M122.8,66L122.8,66c0-1.5,1.3-2.6,2.9-2.6s2.9,1.2,2.9,2.6c0,1.5-1.3,2.6-2.9,2.6S122.8,67.4,122.8,66z"/>
<path class="raise-st4" d="M134.8,66L134.8,66c0-1.5,1.3-2.6,2.9-2.6s2.9,1.2,2.9,2.6c0,1.5-1.3,2.6-2.9,2.6S134.8,67.4,134.8,66z"/>
<path class="raise-st5" d="M134.8,66L134.8,66c0-1.5,1.3-2.6,2.9-2.6s2.9,1.2,2.9,2.6c0,1.5-1.3,2.6-2.9,2.6S134.8,67.4,134.8,66z"/>
<line class="raise-st2" x1="19.3" y1="77.1" x2="19.3" y2="101.8"/>
<line class="raise-st3" x1="19.3" y1="77.1" x2="19.3" y2="101.8"/>
<line class="raise-st2" x1="386.9" y1="77.1" x2="386.9" y2="101.8"/>
<line class="raise-st3" x1="386.9" y1="77.1" x2="386.9" y2="101.8"/>
<path class="raise-st4" d="M146.8,66L146.8,66c0-1.5,1.3-2.6,2.9-2.6s2.9,1.2,2.9,2.6c0,1.5-1.3,2.6-2.9,2.6S146.8,67.4,146.8,66z"/>
<path class="raise-st5" d="M146.8,66L146.8,66c0-1.5,1.3-2.6,2.9-2.6s2.9,1.2,2.9,2.6c0,1.5-1.3,2.6-2.9,2.6S146.8,67.4,146.8,66z"/>
<path class="raise-st4" d="M158.8,66L158.8,66c0-1.5,1.3-2.6,2.9-2.6s2.9,1.2,2.9,2.6c0,1.5-1.3,2.6-2.9,2.6S158.8,67.4,158.8,66z"/>
<path class="raise-st5" d="M158.8,66L158.8,66c0-1.5,1.3-2.6,2.9-2.6s2.9,1.2,2.9,2.6c0,1.5-1.3,2.6-2.9,2.6S158.8,67.4,158.8,66z"/>
<path class="raise-st4" d="M170.8,66L170.8,66c0-1.5,1.3-2.6,2.9-2.6s2.9,1.2,2.9,2.6c0,1.5-1.3,2.6-2.9,2.6S170.8,67.4,170.8,66z"/>
<path class="raise-st5" d="M170.8,66L170.8,66c0-1.5,1.3-2.6,2.9-2.6s2.9,1.2,2.9,2.6c0,1.5-1.3,2.6-2.9,2.6S170.8,67.4,170.8,66z"/>
<path class="raise-st4" d="M182.8,66L182.8,66c0-1.5,1.3-2.6,2.9-2.6s2.9,1.2,2.9,2.6c0,1.5-1.3,2.6-2.9,2.6S182.8,67.4,182.8,66z"/>
<path class="raise-st5" d="M182.8,66L182.8,66c0-1.5,1.3-2.6,2.9-2.6s2.9,1.2,2.9,2.6c0,1.5-1.3,2.6-2.9,2.6S182.8,67.4,182.8,66z"/>
<path class="raise-st4" d="M194.8,66L194.8,66c0-1.5,1.3-2.6,2.9-2.6s2.9,1.2,2.9,2.6c0,1.5-1.3,2.6-2.9,2.6S194.8,67.4,194.8,66z"/>
<path class="raise-st5" d="M194.8,66L194.8,66c0-1.5,1.3-2.6,2.9-2.6s2.9,1.2,2.9,2.6c0,1.5-1.3,2.6-2.9,2.6S194.8,67.4,194.8,66z"/>
<path class="raise-st4" d="M206.8,66L206.8,66c0-1.5,1.3-2.6,2.9-2.6s2.9,1.2,2.9,2.6c0,1.5-1.3,2.6-2.9,2.6S206.8,67.4,206.8,66z"/>
<path class="raise-st5" d="M206.8,66L206.8,66c0-1.5,1.3-2.6,2.9-2.6s2.9,1.2,2.9,2.6c0,1.5-1.3,2.6-2.9,2.6S206.8,67.4,206.8,66z"/>
<path class="raise-st4" d="M218.8,66L218.8,66c0-1.5,1.3-2.6,2.9-2.6s2.9,1.2,2.9,2.6c0,1.5-1.3,2.6-2.9,2.6S218.8,67.4,218.8,66z"/>
<path class="raise-st5" d="M218.8,66L218.8,66c0-1.5,1.3-2.6,2.9-2.6s2.9,1.2,2.9,2.6c0,1.5-1.3,2.6-2.9,2.6S218.8,67.4,218.8,66z"/>
<path class="raise-st4" d="M230.8,66L230.8,66c0-1.5,1.3-2.6,2.9-2.6s2.9,1.2,2.9,2.6c0,1.5-1.3,2.6-2.9,2.6S230.8,67.4,230.8,66z"/>
<path class="raise-st5" d="M230.8,66L230.8,66c0-1.5,1.3-2.6,2.9-2.6s2.9,1.2,2.9,2.6c0,1.5-1.3,2.6-2.9,2.6S230.8,67.4,230.8,66z"/>
<path class="raise-st4" d="M158.8,66L158.8,66c0-1.5,1.3-2.6,2.9-2.6s2.9,1.2,2.9,2.6c0,1.5-1.3,2.6-2.9,2.6S158.8,67.4,158.8,66z"/>
<path class="raise-st5" d="M158.8,66L158.8,66c0-1.5,1.3-2.6,2.9-2.6s2.9,1.2,2.9,2.6c0,1.5-1.3,2.6-2.9,2.6S158.8,67.4,158.8,66z"/>
<path class="raise-st4" d="M170.8,66L170.8,66c0-1.5,1.3-2.6,2.9-2.6s2.9,1.2,2.9,2.6c0,1.5-1.3,2.6-2.9,2.6S170.8,67.4,170.8,66z"/>
<path class="raise-st5" d="M170.8,66L170.8,66c0-1.5,1.3-2.6,2.9-2.6s2.9,1.2,2.9,2.6c0,1.5-1.3,2.6-2.9,2.6S170.8,67.4,170.8,66z"/>
<path class="raise-st4" d="M182.8,66L182.8,66c0-1.5,1.3-2.6,2.9-2.6s2.9,1.2,2.9,2.6c0,1.5-1.3,2.6-2.9,2.6S182.8,67.4,182.8,66z"/>
<path class="raise-st5" d="M182.8,66L182.8,66c0-1.5,1.3-2.6,2.9-2.6s2.9,1.2,2.9,2.6c0,1.5-1.3,2.6-2.9,2.6S182.8,67.4,182.8,66z"/>
<path class="raise-st4" d="M194.8,66L194.8,66c0-1.5,1.3-2.6,2.9-2.6s2.9,1.2,2.9,2.6c0,1.5-1.3,2.6-2.9,2.6S194.8,67.4,194.8,66z"/>
<path class="raise-st5" d="M194.8,66L194.8,66c0-1.5,1.3-2.6,2.9-2.6s2.9,1.2,2.9,2.6c0,1.5-1.3,2.6-2.9,2.6S194.8,67.4,194.8,66z"/>
<path class="raise-st4" d="M206.8,66L206.8,66c0-1.5,1.3-2.6,2.9-2.6s2.9,1.2,2.9,2.6c0,1.5-1.3,2.6-2.9,2.6S206.8,67.4,206.8,66z"/>
<path class="raise-st5" d="M206.8,66L206.8,66c0-1.5,1.3-2.6,2.9-2.6s2.9,1.2,2.9,2.6c0,1.5-1.3,2.6-2.9,2.6S206.8,67.4,206.8,66z"/>
<path class="raise-st4" d="M218.8,66L218.8,66c0-1.5,1.3-2.6,2.9-2.6s2.9,1.2,2.9,2.6c0,1.5-1.3,2.6-2.9,2.6S218.8,67.4,218.8,66z"/>
<path class="raise-st5" d="M218.8,66L218.8,66c0-1.5,1.3-2.6,2.9-2.6s2.9,1.2,2.9,2.6c0,1.5-1.3,2.6-2.9,2.6S218.8,67.4,218.8,66z"/>
<path class="raise-st4" d="M230.8,66L230.8,66c0-1.5,1.3-2.6,2.9-2.6s2.9,1.2,2.9,2.6c0,1.5-1.3,2.6-2.9,2.6S230.8,67.4,230.8,66z"/>
<path class="raise-st5" d="M230.8,66L230.8,66c0-1.5,1.3-2.6,2.9-2.6s2.9,1.2,2.9,2.6c0,1.5-1.3,2.6-2.9,2.6S230.8,67.4,230.8,66z"/>
<path class="raise-st4" d="M242.8,66L242.8,66c0-1.5,1.3-2.6,2.9-2.6s2.9,1.2,2.9,2.6c0,1.5-1.3,2.6-2.9,2.6S242.8,67.4,242.8,66z"/>
<path class="raise-st5" d="M242.8,66L242.8,66c0-1.5,1.3-2.6,2.9-2.6s2.9,1.2,2.9,2.6c0,1.5-1.3,2.6-2.9,2.6S242.8,67.4,242.8,66z"/>
<path class="raise-st4" d="M158.8,66L158.8,66c0-1.5,1.3-2.6,2.9-2.6s2.9,1.2,2.9,2.6c0,1.5-1.3,2.6-2.9,2.6S158.8,67.4,158.8,66z"/>
<path class="raise-st5" d="M158.8,66L158.8,66c0-1.5,1.3-2.6,2.9-2.6s2.9,1.2,2.9,2.6c0,1.5-1.3,2.6-2.9,2.6S158.8,67.4,158.8,66z"/>
<path class="raise-st4" d="M314.8,66L314.8,66c0-1.5,1.3-2.6,2.9-2.6c1.6,0,2.9,1.2,2.9,2.6c0,1.5-1.3,2.6-2.9,2.6
	C316.1,68.6,314.8,67.4,314.8,66z"/>
<path class="raise-st5" d="M314.8,66L314.8,66c0-1.5,1.3-2.6,2.9-2.6c1.6,0,2.9,1.2,2.9,2.6c0,1.5-1.3,2.6-2.9,2.6
	C316.1,68.6,314.8,67.4,314.8,66z"/>
<path class="raise-st4" d="M182.8,66L182.8,66c0-1.5,1.3-2.6,2.9-2.6s2.9,1.2,2.9,2.6c0,1.5-1.3,2.6-2.9,2.6S182.8,67.4,182.8,66z"/>
<path class="raise-st5" d="M182.8,66L182.8,66c0-1.5,1.3-2.6,2.9-2.6s2.9,1.2,2.9,2.6c0,1.5-1.3,2.6-2.9,2.6S182.8,67.4,182.8,66z"/>
<path class="raise-st4" d="M194.8,66L194.8,66c0-1.5,1.3-2.6,2.9-2.6s2.9,1.2,2.9,2.6c0,1.5-1.3,2.6-2.9,2.6S194.8,67.4,194.8,66z"/>
<path class="raise-st5" d="M194.8,66L194.8,66c0-1.5,1.3-2.6,2.9-2.6s2.9,1.2,2.9,2.6c0,1.5-1.3,2.6-2.9,2.6S194.8,67.4,194.8,66z"/>
<path class="raise-st4" d="M206.8,66L206.8,66c0-1.5,1.3-2.6,2.9-2.6s2.9,1.2,2.9,2.6c0,1.5-1.3,2.6-2.9,2.6S206.8,67.4,206.8,66z"/>
<path class="raise-st5" d="M206.8,66L206.8,66c0-1.5,1.3-2.6,2.9-2.6s2.9,1.2,2.9,2.6c0,1.5-1.3,2.6-2.9,2.6S206.8,67.4,206.8,66z"/>
<path class="raise-st4" d="M218.8,66L218.8,66c0-1.5,1.3-2.6,2.9-2.6s2.9,1.2,2.9,2.6c0,1.5-1.3,2.6-2.9,2.6S218.8,67.4,218.8,66z"/>
<path class="raise-st5" d="M218.8,66L218.8,66c0-1.5,1.3-2.6,2.9-2.6s2.9,1.2,2.9,2.6c0,1.5-1.3,2.6-2.9,2.6S218.8,67.4,218.8,66z"/>
<path class="raise-st4" d="M230.8,66L230.8,66c0-1.5,1.3-2.6,2.9-2.6s2.9,1.2,2.9,2.6c0,1.5-1.3,2.6-2.9,2.6S230.8,67.4,230.8,66z"/>
<path class="raise-st5" d="M230.8,66L230.8,66c0-1.5,1.3-2.6,2.9-2.6s2.9,1.2,2.9,2.6c0,1.5-1.3,2.6-2.9,2.6S230.8,67.4,230.8,66z"/>
<path class="raise-st4" d="M278.8,66L278.8,66c0-1.5,1.3-2.6,2.9-2.6c1.6,0,2.9,1.2,2.9,2.6c0,1.5-1.3,2.6-2.9,2.6
	C280.1,68.6,278.8,67.4,278.8,66z"/>
<path class="raise-st5" d="M278.8,66L278.8,66c0-1.5,1.3-2.6,2.9-2.6c1.6,0,2.9,1.2,2.9,2.6c0,1.5-1.3,2.6-2.9,2.6
	C280.1,68.6,278.8,67.4,278.8,66z"/>
<path class="raise-st6" d="M254.8,66L254.8,66c0-1.5,1.3-2.6,2.9-2.6s2.9,1.2,2.9,2.6c0,1.5-1.3,2.6-2.9,2.6S254.8,67.4,254.8,66z"/>
<path class="raise-st5" d="M254.8,66L254.8,66c0-1.5,1.3-2.6,2.9-2.6s2.9,1.2,2.9,2.6c0,1.5-1.3,2.6-2.9,2.6S254.8,67.4,254.8,66z"/>
<path class="raise-st6" d="M266.8,66L266.8,66c0-1.5,1.3-2.6,2.9-2.6c1.6,0,2.9,1.2,2.9,2.6c0,1.5-1.3,2.6-2.9,2.6
	C268.1,68.6,266.8,67.4,266.8,66z"/>
<path class="raise-st5" d="M266.8,66L266.8,66c0-1.5,1.3-2.6,2.9-2.6c1.6,0,2.9,1.2,2.9,2.6c0,1.5-1.3,2.6-2.9,2.6
	C268.1,68.6,266.8,67.4,266.8,66z"/>
<path class="raise-st6" d="M278.8,66L278.8,66c0-1.5,1.3-2.6,2.9-2.6c1.6,0,2.9,1.2,2.9,2.6c0,1.5-1.3,2.6-2.9,2.6
	C280.1,68.6,278.8,67.4,278.8,66z"/>
<path class="raise-st5" d="M278.8,66L278.8,66c0-1.5,1.3-2.6,2.9-2.6c1.6,0,2.9,1.2,2.9,2.6c0,1.5-1.3,2.6-2.9,2.6
	C280.1,68.6,278.8,67.4,278.8,66z"/>
<path class="raise-st6" d="M290.8,66L290.8,66c0-1.5,1.3-2.6,2.9-2.6c1.6,0,2.9,1.2,2.9,2.6c0,1.5-1.3,2.6-2.9,2.6
	C292.1,68.6,290.8,67.4,290.8,66z"/>
<path class="raise-st5" d="M290.8,66L290.8,66c0-1.5,1.3-2.6,2.9-2.6c1.6,0,2.9,1.2,2.9,2.6c0,1.5-1.3,2.6-2.9,2.6
	C292.1,68.6,290.8,67.4,290.8,66z"/>
<path class="raise-st6" d="M302.8,66L302.8,66c0-1.5,1.3-2.6,2.9-2.6c1.6,0,2.9,1.2,2.9,2.6c0,1.5-1.3,2.6-2.9,2.6
	C304.1,68.6,302.8,67.4,302.8,66z"/>
<path class="raise-st5" d="M302.8,66L302.8,66c0-1.5,1.3-2.6,2.9-2.6c1.6,0,2.9,1.2,2.9,2.6c0,1.5-1.3,2.6-2.9,2.6
	C304.1,68.6,302.8,67.4,302.8,66z"/>
<path class="raise-st6" d="M314.8,66L314.8,66c0-1.5,1.3-2.6,2.9-2.6c1.6,0,2.9,1.2,2.9,2.6c0,1.5-1.3,2.6-2.9,2.6
	C316.1,68.6,314.8,67.4,314.8,66z"/>
<path class="raise-st5" d="M314.8,66L314.8,66c0-1.5,1.3-2.6,2.9-2.6c1.6,0,2.9,1.2,2.9,2.6c0,1.5-1.3,2.6-2.9,2.6
	C316.1,68.6,314.8,67.4,314.8,66z"/>
<path class="raise-st6" d="M326.8,66L326.8,66c0-1.5,1.3-2.6,2.9-2.6c1.6,0,2.9,1.2,2.9,2.6c0,1.5-1.3,2.6-2.9,2.6
	C328.1,68.6,326.8,67.4,326.8,66z"/>
<path class="raise-st5" d="M326.8,66L326.8,66c0-1.5,1.3-2.6,2.9-2.6c1.6,0,2.9,1.2,2.9,2.6c0,1.5-1.3,2.6-2.9,2.6
	C328.1,68.6,326.8,67.4,326.8,66z"/>
<path class="raise-st6" d="M338.8,66L338.8,66c0-1.5,1.3-2.6,2.9-2.6c1.6,0,2.9,1.2,2.9,2.6c0,1.5-1.3,2.6-2.9,2.6
	C340.1,68.6,338.8,67.4,338.8,66z"/>
<path class="raise-st5" d="M338.8,66L338.8,66c0-1.5,1.3-2.6,2.9-2.6c1.6,0,2.9,1.2,2.9,2.6c0,1.5-1.3,2.6-2.9,2.6
	C340.1,68.6,338.8,67.4,338.8,66z"/>
<path class="raise-st6" d="M266.8,66L266.8,66c0-1.5,1.3-2.6,2.9-2.6c1.6,0,2.9,1.2,2.9,2.6c0,1.5-1.3,2.6-2.9,2.6
	C268.1,68.6,266.8,67.4,266.8,66z"/>
<path class="raise-st5" d="M266.8,66L266.8,66c0-1.5,1.3-2.6,2.9-2.6c1.6,0,2.9,1.2,2.9,2.6c0,1.5-1.3,2.6-2.9,2.6
	C268.1,68.6,266.8,67.4,266.8,66z"/>
<path class="raise-st6" d="M278.8,66L278.8,66c0-1.5,1.3-2.6,2.9-2.6c1.6,0,2.9,1.2,2.9,2.6c0,1.5-1.3,2.6-2.9,2.6
	C280.1,68.6,278.8,67.4,278.8,66z"/>
<path class="raise-st5" d="M278.8,66L278.8,66c0-1.5,1.3-2.6,2.9-2.6c1.6,0,2.9,1.2,2.9,2.6c0,1.5-1.3,2.6-2.9,2.6
	C280.1,68.6,278.8,67.4,278.8,66z"/>
<path class="raise-st6" d="M290.8,66L290.8,66c0-1.5,1.3-2.6,2.9-2.6c1.6,0,2.9,1.2,2.9,2.6c0,1.5-1.3,2.6-2.9,2.6
	C292.1,68.6,290.8,67.4,290.8,66z"/>
<path class="raise-st5" d="M290.8,66L290.8,66c0-1.5,1.3-2.6,2.9-2.6c1.6,0,2.9,1.2,2.9,2.6c0,1.5-1.3,2.6-2.9,2.6
	C292.1,68.6,290.8,67.4,290.8,66z"/>
<path class="raise-st6" d="M302.8,66L302.8,66c0-1.5,1.3-2.6,2.9-2.6c1.6,0,2.9,1.2,2.9,2.6c0,1.5-1.3,2.6-2.9,2.6
	C304.1,68.6,302.8,67.4,302.8,66z"/>
<path class="raise-st5" d="M302.8,66L302.8,66c0-1.5,1.3-2.6,2.9-2.6c1.6,0,2.9,1.2,2.9,2.6c0,1.5-1.3,2.6-2.9,2.6
	C304.1,68.6,302.8,67.4,302.8,66z"/>
<path class="raise-st6" d="M314.8,66L314.8,66c0-1.5,1.3-2.6,2.9-2.6c1.6,0,2.9,1.2,2.9,2.6c0,1.5-1.3,2.6-2.9,2.6
	C316.1,68.6,314.8,67.4,314.8,66z"/>
<path class="raise-st5" d="M314.8,66L314.8,66c0-1.5,1.3-2.6,2.9-2.6c1.6,0,2.9,1.2,2.9,2.6c0,1.5-1.3,2.6-2.9,2.6
	C316.1,68.6,314.8,67.4,314.8,66z"/>
<path class="raise-st6" d="M326.8,66L326.8,66c0-1.5,1.3-2.6,2.9-2.6c1.6,0,2.9,1.2,2.9,2.6c0,1.5-1.3,2.6-2.9,2.6
	C328.1,68.6,326.8,67.4,326.8,66z"/>
<path class="raise-st5" d="M326.8,66L326.8,66c0-1.5,1.3-2.6,2.9-2.6c1.6,0,2.9,1.2,2.9,2.6c0,1.5-1.3,2.6-2.9,2.6
	C328.1,68.6,326.8,67.4,326.8,66z"/>
<path class="raise-st6" d="M338.8,66L338.8,66c0-1.5,1.3-2.6,2.9-2.6c1.6,0,2.9,1.2,2.9,2.6c0,1.5-1.3,2.6-2.9,2.6
	C340.1,68.6,338.8,67.4,338.8,66z"/>
<path class="raise-st5" d="M338.8,66L338.8,66c0-1.5,1.3-2.6,2.9-2.6c1.6,0,2.9,1.2,2.9,2.6c0,1.5-1.3,2.6-2.9,2.6
	C340.1,68.6,338.8,67.4,338.8,66z"/>
<path class="raise-st6" d="M350.8,66L350.8,66c0-1.5,1.3-2.6,2.9-2.6c1.6,0,2.9,1.2,2.9,2.6c0,1.5-1.3,2.6-2.9,2.6
	C352.1,68.6,350.8,67.4,350.8,66z"/>
<path class="raise-st5" d="M350.8,66L350.8,66c0-1.5,1.3-2.6,2.9-2.6c1.6,0,2.9,1.2,2.9,2.6c0,1.5-1.3,2.6-2.9,2.6
	C352.1,68.6,350.8,67.4,350.8,66z"/>
<path class="raise-st6" d="M266.8,66L266.8,66c0-1.5,1.3-2.6,2.9-2.6c1.6,0,2.9,1.2,2.9,2.6c0,1.5-1.3,2.6-2.9,2.6
	C268.1,68.6,266.8,67.4,266.8,66z"/>
<path class="raise-st5" d="M266.8,66L266.8,66c0-1.5,1.3-2.6,2.9-2.6c1.6,0,2.9,1.2,2.9,2.6c0,1.5-1.3,2.6-2.9,2.6
	C268.1,68.6,266.8,67.4,266.8,66z"/>
<path class="raise-st6" d="M230.8,66L230.8,66c0-1.5,1.3-2.6,2.9-2.6s2.9,1.2,2.9,2.6c0,1.5-1.3,2.6-2.9,2.6S230.8,67.4,230.8,66z"/>
<path class="raise-st5" d="M230.8,66L230.8,66c0-1.5,1.3-2.6,2.9-2.6s2.9,1.2,2.9,2.6c0,1.5-1.3,2.6-2.9,2.6S230.8,67.4,230.8,66z"/>
<path class="raise-st6" d="M290.8,66L290.8,66c0-1.5,1.3-2.6,2.9-2.6c1.6,0,2.9,1.2,2.9,2.6c0,1.5-1.3,2.6-2.9,2.6
	C292.1,68.6,290.8,67.4,290.8,66z"/>
<path class="raise-st5" d="M290.8,66L290.8,66c0-1.5,1.3-2.6,2.9-2.6c1.6,0,2.9,1.2,2.9,2.6c0,1.5-1.3,2.6-2.9,2.6
	C292.1,68.6,290.8,67.4,290.8,66z"/>
<path class="raise-st6" d="M302.8,66L302.8,66c0-1.5,1.3-2.6,2.9-2.6c1.6,0,2.9,1.2,2.9,2.6c0,1.5-1.3,2.6-2.9,2.6
	C304.1,68.6,302.8,67.4,302.8,66z"/>
<path class="raise-st5" d="M302.8,66L302.8,66c0-1.5,1.3-2.6,2.9-2.6c1.6,0,2.9,1.2,2.9,2.6c0,1.5-1.3,2.6-2.9,2.6
	C304.1,68.6,302.8,67.4,302.8,66z"/>
<path class="raise-st6" d="M314.8,66L314.8,66c0-1.5,1.3-2.6,2.9-2.6c1.6,0,2.9,1.2,2.9,2.6c0,1.5-1.3,2.6-2.9,2.6
	C316.1,68.6,314.8,67.4,314.8,66z"/>
<path class="raise-st5" d="M314.8,66L314.8,66c0-1.5,1.3-2.6,2.9-2.6c1.6,0,2.9,1.2,2.9,2.6c0,1.5-1.3,2.6-2.9,2.6
	C316.1,68.6,314.8,67.4,314.8,66z"/>
<path class="raise-st6" d="M206.8,66L206.8,66c0-1.5,1.3-2.6,2.9-2.6s2.9,1.2,2.9,2.6c0,1.5-1.3,2.6-2.9,2.6S206.8,67.4,206.8,66z"/>
<path class="raise-st5" d="M206.8,66L206.8,66c0-1.5,1.3-2.6,2.9-2.6s2.9,1.2,2.9,2.6c0,1.5-1.3,2.6-2.9,2.6S206.8,67.4,206.8,66z"/>
<path class="raise-st6" d="M338.8,66L338.8,66c0-1.5,1.3-2.6,2.9-2.6c1.6,0,2.9,1.2,2.9,2.6c0,1.5-1.3,2.6-2.9,2.6
	C340.1,68.6,338.8,67.4,338.8,66z"/>
<path class="raise-st5" d="M338.8,66L338.8,66c0-1.5,1.3-2.6,2.9-2.6c1.6,0,2.9,1.2,2.9,2.6c0,1.5-1.3,2.6-2.9,2.6
	C340.1,68.6,338.8,67.4,338.8,66z"/>
<path class="raise-st6" d="M350.8,66L350.8,66c0-1.5,1.3-2.6,2.9-2.6c1.6,0,2.9,1.2,2.9,2.6c0,1.5-1.3,2.6-2.9,2.6
	C352.1,68.6,350.8,67.4,350.8,66z"/>
<path class="raise-st5" d="M350.8,66L350.8,66c0-1.5,1.3-2.6,2.9-2.6c1.6,0,2.9,1.2,2.9,2.6c0,1.5-1.3,2.6-2.9,2.6
	C352.1,68.6,350.8,67.4,350.8,66z"/>
<path class="raise-st6" d="M362.8,66L362.8,66c0-1.5,1.3-2.6,2.9-2.6c1.6,0,2.9,1.2,2.9,2.6c0,1.5-1.3,2.6-2.9,2.6
	C364.1,68.6,362.8,67.4,362.8,66z"/>
<path class="raise-st5" d="M362.8,66L362.8,66c0-1.5,1.3-2.6,2.9-2.6c1.6,0,2.9,1.2,2.9,2.6c0,1.5-1.3,2.6-2.9,2.6
	C364.1,68.6,362.8,67.4,362.8,66z"/>
<path class="raise-st4" d="M434.8,66L434.8,66c0-1.5,1.3-2.6,2.9-2.6c1.6,0,2.9,1.2,2.9,2.6c0,1.5-1.3,2.6-2.9,2.6
	C436.1,68.6,434.8,67.4,434.8,66z"/>
<path class="raise-st5" d="M434.8,66L434.8,66c0-1.5,1.3-2.6,2.9-2.6c1.6,0,2.9,1.2,2.9,2.6c0,1.5-1.3,2.6-2.9,2.6
	C436.1,68.6,434.8,67.4,434.8,66z"/>
<text transform="matrix(1 0 0 1 444.2598 68.7373)" class="raise-st0 raise-st1">Actually not spam</text>
<path class="raise-st6" d="M434.8,84L434.8,84c0-1.5,1.3-2.6,2.9-2.6c1.6,0,2.9,1.2,2.9,2.6c0,1.5-1.3,2.6-2.9,2.6
	C436.1,86.6,434.8,85.4,434.8,84z"/>
<path class="raise-st5" d="M434.8,84L434.8,84c0-1.5,1.3-2.6,2.9-2.6c1.6,0,2.9,1.2,2.9,2.6c0,1.5-1.3,2.6-2.9,2.6
	C436.1,86.6,434.8,85.4,434.8,84z"/>
<text transform="matrix(1 0 0 1 444.2598 86.7373)" class="raise-st0 raise-st1">Actually spam</text>
<path class="raise-st4" d="M290.8,66L290.8,66c0-1.5,1.3-2.6,2.9-2.6c1.6,0,2.9,1.2,2.9,2.6c0,1.5-1.3,2.6-2.9,2.6
	C292.1,68.6,290.8,67.4,290.8,66z"/>
<path class="raise-st5" d="M290.8,66L290.8,66c0-1.5,1.3-2.6,2.9-2.6c1.6,0,2.9,1.2,2.9,2.6c0,1.5-1.3,2.6-2.9,2.6
	C292.1,68.6,290.8,67.4,290.8,66z"/>
<path class="raise-st6" d="M374.8,66L374.8,66c0-1.5,1.3-2.6,2.9-2.6c1.6,0,2.9,1.2,2.9,2.6c0,1.5-1.3,2.6-2.9,2.6
	C376.1,68.6,374.8,67.4,374.8,66z"/>
<path class="raise-st5" d="M374.8,66L374.8,66c0-1.5,1.3-2.6,2.9-2.6c1.6,0,2.9,1.2,2.9,2.6c0,1.5-1.3,2.6-2.9,2.6
	C376.1,68.6,374.8,67.4,374.8,66z"/>
<line class="raise-st7" x1="287.7" y1="36" x2="287.7" y2="90"/>
<path class="raise-st4" d="M266.8,66L266.8,66c0-1.5,1.3-2.6,2.9-2.6c1.6,0,2.9,1.2,2.9,2.6c0,1.5-1.3,2.6-2.9,2.6
	C268.1,68.6,266.8,67.4,266.8,66z"/>
<path class="raise-st5" d="M266.8,66L266.8,66c0-1.5,1.3-2.6,2.9-2.6c1.6,0,2.9,1.2,2.9,2.6c0,1.5-1.3,2.6-2.9,2.6
	C268.1,68.6,266.8,67.4,266.8,66z"/>
<rect x="4.8" y="93.8" class="raise-st2" width="29.7" height="10"/>
<rect x="372" y="96.4" class="raise-st2" width="29.7" height="10"/>
<text transform="matrix(1 0 0 1 12.7456 110.6099)" class="raise-st0 raise-st8">0.0</text>
<text transform="matrix(1 0 0 1 379.9201 110.6099)" class="raise-st0 raise-st8">1.0</text>
<rect x="218.7" y="6.7" class="raise-st9" width="138.2" height="33.8"/>
<text transform="matrix(1 0 0 1 255.3391 14.5479)"><tspan x="0" y="0" class="raise-st0 raise-st1">Classification</tspan><tspan x="7.9" y="13.2" class="raise-st0 raise-st1">Threshold</tspan></text>
<text transform="matrix(1 0 0 1 24.4081 78.8034)" class="raise-st0 raise-st10">TN</text>
<text transform="matrix(1 0 0 1 36.4081 78.8032)" class="raise-st0 raise-st10">TN</text>
<text transform="matrix(1 0 0 1 48.4081 78.8033)" class="raise-st0 raise-st10">TN</text>
<text transform="matrix(1 0 0 1 60.4081 78.8034)" class="raise-st0 raise-st10">TN</text>
<text transform="matrix(1 0 0 1 72.4081 78.8031)" class="raise-st0 raise-st10">TN</text>
<text transform="matrix(1 0 0 1 84.4081 78.8033)" class="raise-st0 raise-st10">TN</text>
<text transform="matrix(1 0 0 1 96.4081 78.8031)" class="raise-st0 raise-st10">TN</text>
<text transform="matrix(1 0 0 1 108.4081 78.8031)" class="raise-st0 raise-st10">TN</text>
<text transform="matrix(1 0 0 1 120.4081 78.8033)" class="raise-st0 raise-st10">TN</text>
<text transform="matrix(1 0 0 1 132.4081 78.8033)" class="raise-st0 raise-st10">TN</text>
<text transform="matrix(1 0 0 1 144.4081 78.8033)" class="raise-st0 raise-st10">TN</text>
<text transform="matrix(1 0 0 1 156.4081 78.8032)" class="raise-st0 raise-st10">TN</text>
<text transform="matrix(1 0 0 1 168.4081 78.8034)" class="raise-st0 raise-st10">TN</text>
<text transform="matrix(1 0 0 1 180.4081 78.8034)" class="raise-st0 raise-st10">TN</text>
<text transform="matrix(1 0 0 1 192.4081 78.8033)" class="raise-st0 raise-st10">TN</text>
<text transform="matrix(1 0 0 1 204.4081 78.8031)" class="raise-st0 raise-st10">FN</text>
<text transform="matrix(1 0 0 1 216.4005 78.8031)" class="raise-st0 raise-st10">TN</text>
<text transform="matrix(1 0 0 1 228.4215 78.803)" class="raise-st0 raise-st10">FN</text>
<text transform="matrix(1 0 0 1 240.4245 78.8031)" class="raise-st0 raise-st10">TN</text>
<text transform="matrix(1 0 0 1 252.5071 78.8034)" class="raise-st0 raise-st10">FN</text>
<text transform="matrix(1 0 0 1 264.424 78.8032)" class="raise-st0 raise-st10">TN</text>
<text transform="matrix(1 0 0 1 276.4478 78.8031)" class="raise-st0 raise-st10">FN</text>
<text transform="matrix(1 0 0 1 288.6288 78.8034)" class="raise-st0 raise-st10">FP</text>
<text transform="matrix(1 0 0 1 300.4378 78.803)" class="raise-st0 raise-st10">TP</text>
<text transform="matrix(1 0 0 1 312.3961 78.8034)" class="raise-st0 raise-st10">TP</text>
<text transform="matrix(1 0 0 1 324.3961 78.803)" class="raise-st0 raise-st10">TP</text>
<text transform="matrix(1 0 0 1 336.4378 78.8033)" class="raise-st0 raise-st10">TP</text>
<text transform="matrix(1 0 0 1 348.3961 78.8032)" class="raise-st0 raise-st10">TP</text>
<text transform="matrix(1 0 0 1 360.3961 78.803)" class="raise-st0 raise-st10">TP</text>
<text transform="matrix(1 0 0 1 372.4378 78.8032)" class="raise-st0 raise-st10">TP</text>
</svg>
