<?xml version="1.0" encoding="UTF-8" standalone="no"?>
<svg
   xmlns:dc="http://purl.org/dc/elements/1.1/"
   xmlns:cc="http://creativecommons.org/ns#"
   xmlns:rdf="http://www.w3.org/1999/02/22-rdf-syntax-ns#"
   xmlns:svg="http://www.w3.org/2000/svg"
   xmlns="http://www.w3.org/2000/svg"
   viewBox="0 0 824.95355 373.86859"
   height="373.86859"
   width="824.95355"
   xml:space="preserve"
   id="svg2"
  version="1.1">
  <desc>The loss function for the training set gradually declines. By contrast, the loss function for the validation set declines, but then starts to rise.</desc>
  <metadata
     id="metadata8"><rdf:RDF><cc:Work
         rdf:about=""><dc:format>image/svg+xml</dc:format><dc:type
           rdf:resource="http://purl.org/dc/dcmitype/StillImage" /><dc:title></dc:title></cc:Work></rdf:RDF></metadata><defs
     id="defs6"><clipPath
       id="clipPath22"
       clipPathUnits="userSpaceOnUse"><path
         id="path20"
         d="M 0,0 H 365760 V 205740 H 0 Z" /></clipPath></defs><g
     transform="matrix(1.3333333,0,0,-1.3333333,0,541.17116)"
     id="g10"><path
       d="m 50.698718,400.20191 c 9.970548,-4.80536 40.673255,-17.89593 59.823302,-28.83212 19.15004,-10.93619 40.51636,-24.35771 55.07698,-36.78502 14.56062,-12.42732 20.57492,-22.36862 32.28677,-37.77887 11.71186,-15.41026 27.22209,-41.75775 37.98433,-54.68266 10.76226,-12.92495 15.19412,-15.57625 26.58924,-22.86693 11.39509,-7.29069 26.42969,-14.41502 41.78139,-20.87714 15.35168,-6.46213 31.17828,-13.09023 50.32868,-17.89559 19.15037,-4.80537 41.94123,-8.28522 64.57355,-10.93653 22.63234,-2.65132 41.14986,-4.30842 71.22035,-4.97133 30.07049,-0.66293 91.00226,0.82818 109.20273,0.99383"
       style="fill:#000000;fill-opacity:0;fill-rule:evenodd;stroke:none;stroke-width:0.0019685"
       id="path36" /><path
       d="m 50.698718,400.20191 c 9.970548,-4.80536 40.673255,-17.89593 59.823302,-28.83212 19.15004,-10.93619 40.51636,-24.35771 55.07698,-36.78502 14.56062,-12.42732 20.57492,-22.36862 32.28677,-37.77887 11.71186,-15.41026 27.22209,-41.75775 37.98433,-54.68266 10.76226,-12.92495 15.19412,-15.57625 26.58924,-22.86693 11.39509,-7.29069 26.42969,-14.41502 41.78139,-20.87714 15.35168,-6.46213 31.17828,-13.09023 50.32868,-17.89559 19.15037,-4.80537 41.94123,-8.28522 64.57355,-10.93653 22.63234,-2.65132 41.14986,-4.30842 71.22035,-4.97133 30.07049,-0.66293 91.00226,0.82818 109.20273,0.99383"
       style="fill:none;stroke:#1155cc;stroke-width:2.99999404;stroke-linecap:butt;stroke-linejoin:round;stroke-miterlimit:8;stroke-dasharray:none;stroke-opacity:1"
       id="path38" /><path
       d="m 50.698718,404.51489 c 15.313571,-7.02179 68.990122,-30.16197 91.881392,-42.13071 22.89127,-11.96874 30.78429,-18.98986 45.46629,-29.68173 14.68197,-10.69188 27.31205,-24.25621 42.6256,-34.4695 15.31355,-10.2133 32.0481,-18.831 49.25579,-26.81027 17.20766,-7.97927 33.30932,-15.00138 53.99022,-21.06534 20.68089,-6.06399 51.93992,-12.60586 70.09512,-15.31848 18.15522,-2.71259 25.10137,-2.07417 38.8361,-0.95715 13.73478,1.11702 28.41709,4.30821 43.57249,7.65923 15.15543,3.35103 32.67807,8.13814 47.36009,12.44698 14.68197,4.30887 31.89088,10.21429 40.7318,13.40613 8.84093,3.19185 10.26124,4.78744 12.31346,5.74491"
       style="fill:#000000;fill-opacity:0;fill-rule:evenodd;stroke:none;stroke-width:0.0019685"
       id="path46" /><path
       d="m 50.698718,404.51489 c 15.313571,-7.02179 68.990122,-30.16197 91.881392,-42.13071 22.89127,-11.96874 30.78429,-18.98986 45.46629,-29.68173 14.68197,-10.69188 27.31205,-24.25621 42.6256,-34.4695 15.31355,-10.2133 32.0481,-18.831 49.25579,-26.81027 17.20766,-7.97927 33.30932,-15.00138 53.99022,-21.06534 20.68089,-6.06399 51.93992,-12.60586 70.09512,-15.31848 18.15522,-2.71259 25.10137,-2.07417 38.8361,-0.95715 13.73478,1.11702 28.41709,4.30821 43.57249,7.65923 15.15543,3.35103 32.67807,8.13814 47.36009,12.44698 14.68197,4.30887 31.89088,10.21429 40.7318,13.40613 8.84093,3.19185 10.26124,4.78744 12.31346,5.74491"
       style="fill:none;stroke:#cc0000;stroke-width:2.99999404;stroke-linecap:butt;stroke-linejoin:round;stroke-miterlimit:8;stroke-dasharray:none;stroke-opacity:1"
       id="path48" /><path
       d="m 126.58439,256.19321 h 97.65335 v -24.09444 h -97.65335 z"
       style="fill:#000000;fill-opacity:0;fill-rule:evenodd;stroke:none;stroke-width:0.0019685"
       id="path56" /><text
       y="-236.00325"
       x="133.33438"
       transform="scale(1,-1)"
       style="font-variant:normal;font-weight:normal;font-size:13.99997139px;font-family:Roboto;-inkscape-font-specification:Roboto-Regular;writing-mode:lr-tb;fill:#1155cc;fill-opacity:1;fill-rule:nonzero;stroke:none;stroke-width:0.74999851"
       id="text66"><tspan
         style="stroke-width:0.74999851;-inkscape-font-specification:sans-serif;font-family:sans-serif;font-weight:normal;font-style:normal;font-stretch:normal;font-variant:normal"
         x="133.33438"
         y="-236.00325"
         id="tspan64">Training Data</tspan></text>
<path
       d="M 337.94617,280.19316 H 459.71758 V 253.59479 H 337.94617 Z"
       style="fill:#000000;fill-opacity:0;fill-rule:evenodd;stroke:none;stroke-width:0.0019685"
       id="path76" /><text
       y="-260.0032"
       x="344.69617"
       transform="scale(1,-1)"
       style="font-variant:normal;font-weight:normal;font-size:13.99997139px;font-family:Roboto;-inkscape-font-specification:Roboto-Regular;writing-mode:lr-tb;fill:#cc0000;fill-opacity:1;fill-rule:nonzero;stroke:none;stroke-width:0.74999851"
       id="text86"><tspan
         style="stroke-width:0.74999851;-inkscape-font-specification:sans-serif;font-family:sans-serif;font-weight:normal;font-style:normal;font-stretch:normal;font-variant:normal"
         x="344.69617"
         y="-260.0032"
         id="tspan84">Validation Data</tspan></text>
<path
       d="M 45.52737,155.80168 H 618.71518"
       style="fill:#000000;fill-opacity:0;fill-rule:evenodd;stroke:none;stroke-width:0.0019685"
       id="path96" /><path
       d="M 45.52737,155.80168 H 605.21521"
       style="fill:none;stroke:#595959;stroke-width:2.24999547;stroke-linecap:butt;stroke-linejoin:round;stroke-miterlimit:8;stroke-dasharray:none;stroke-opacity:1"
       id="path98" /><path
       d="m 605.21521,152.08529 10.21067,3.71639 -10.21067,3.71639 z"
       style="fill:#595959;fill-opacity:1;fill-rule:evenodd;stroke:#595959;stroke-width:2.24999547;stroke-linecap:butt;stroke-linejoin:miter;stroke-miterlimit:10;stroke-dasharray:none;stroke-opacity:1"
       id="path100" /><path
       d="m 281.99944,152.07531 h 77.9526 v -26.59837 h -77.9526 z"
       style="fill:#000000;fill-opacity:0;fill-rule:evenodd;stroke:none;stroke-width:0.0019685"
       id="path108" /><text
       y="-131.88536"
       x="288.74942"
       transform="scale(1,-1)"
       style="font-variant:normal;font-weight:normal;font-size:13.99997139px;font-family:Arial;-inkscape-font-specification:ArialMT;writing-mode:lr-tb;fill:#000000;fill-opacity:1;fill-rule:nonzero;stroke:none;stroke-width:0.74999851"
       id="text118"><tspan
         style="stroke-width:0.74999851;-inkscape-font-specification:sans-serif;font-family:sans-serif;font-weight:normal;font-style:normal;font-stretch:normal;font-variant:normal"
         x="288.74942"
         y="-131.88536"
         id="tspan116">Iterations</tspan></text>
<path
       d="M 46.140075,155.62255 V 405"
       style="fill:#000000;fill-opacity:0;fill-rule:evenodd;stroke:none;stroke-width:0.0019685"
       id="path128" /><path
       d="M 46.140075,155.62255 V 391.50003"
       style="fill:none;stroke:#000000;stroke-width:2.24999547;stroke-linecap:butt;stroke-linejoin:round;stroke-miterlimit:8;stroke-dasharray:none;stroke-opacity:1"
       id="path130" /><path
       d="m 49.856465,391.50003 -3.71639,10.2107 -3.71639,-10.2107 z"
       style="fill:#000000;fill-opacity:1;fill-rule:evenodd;stroke:#000000;stroke-width:2.24999547;stroke-linecap:butt;stroke-linejoin:miter;stroke-miterlimit:10;stroke-dasharray:none;stroke-opacity:1"
       id="path132" /><path
       d="M 0,296.08683 H 44.52747 V 269.48846 H 0 Z"
       style="fill:#000000;fill-opacity:0;fill-rule:evenodd;stroke:none;stroke-width:0.0019685"
       id="path140" /><text
       y="-275.89688"
       x="6.7499866"
       transform="scale(1,-1)"
       style="font-variant:normal;font-weight:normal;font-size:13.99997139px;font-family:Arial;-inkscape-font-specification:ArialMT;writing-mode:lr-tb;fill:#000000;fill-opacity:1;fill-rule:nonzero;stroke:none;stroke-width:0.74999851"
       id="text150"><tspan
         style="stroke-width:0.74999851;-inkscape-font-specification:sans-serif;font-family:sans-serif;font-weight:normal;font-style:normal;font-stretch:normal;font-variant:normal"
         x="6.7499866"
         y="-275.89688"
         id="tspan148">Loss</tspan></text>
</g></svg>
